<svg width="32" height="32" viewBox="0 0 32 32" fill="none" xmlns="http://www.w3.org/2000/svg">
<path d="M27.9998 6.66663V5.33329H26.6665V3.99996H25.3332V2.66663H6.6665V3.99996H5.33317V5.33329H3.99984V6.66663H2.6665V25.3333H3.99984V26.6666H5.33317V28H6.6665V29.3333H25.3332V28H26.6665V26.6666H27.9998V25.3333H29.3332V6.66663H27.9998ZM26.6665 22.6666H25.3332V24H23.9998V25.3333H22.6665V26.6666H9.33317V25.3333H7.99984V24H6.6665V22.6666H5.33317V9.33329H6.6665V7.99996H7.99984V6.66663H9.33317V5.33329H22.6665V6.66663H23.9998V7.99996H25.3332V9.33329H26.6665V22.6666Z" fill="#22BB2E"/>
<path d="M22.4 9.33328V10.9019H20.8V12.4705H19.2V14.0392H17.6V15.6078H16V17.1764H14.4V18.745H13.6V19.5294H12V18.745H11.2V17.1764H9.6V16.3921H8V18.745H9.6V20.3137H11.2V21.8823H12V22.6666H13.6V21.8823H14.4V20.3137H16V18.745H17.6V17.1764H19.2V15.6078H20.8V14.0392H22.4V12.4705H24V9.33328H22.4Z" fill="#22BB2E"/>
</svg>
